<?xml version="1.0"?>
<svg xmlns="http://www.w3.org/2000/svg" xmlns:xlink="http://www.w3.org/1999/xlink" version="1.1" id="Layer_1" x="0px" y="0px" viewBox="0 0 512 512" style="enable-background:new 0 0 512 512;" xml:space="preserve" width="100px" height="100px" class=""><g><g>
	<g>
		<g>
			<path d="M454.613,0H57.387C25.707,0,0,25.707,0,57.387v397.227C0,486.293,25.707,512,57.387,512h397.227     c31.68,0,57.387-25.707,57.387-57.387V57.387C512,25.707,486.293,0,454.613,0z M490.667,454.613     c0,19.947-16.107,36.053-36.053,36.053H57.387c-19.947,0-36.053-16.107-36.053-36.053V57.387     c0-19.947,16.107-36.053,36.053-36.053h397.227c19.947,0,36.053,16.107,36.053,36.053V454.613z" data-original="#000000" class="active-path" data-old_color="#000000" fill="#FFFFFF"/>
			<path d="M171.84,149.333l-65.067,210.133h27.093L153.28,294.4h66.453l20.053,65.067h27.733l-64.747-210.133H171.84z      M158.4,274.133l17.813-58.453c3.733-13.013,6.933-27.413,9.707-40.747h0.96c2.773,13.013,5.973,27.093,10.027,41.067     l18.133,58.133H158.4z" data-original="#000000" class="active-path" data-old_color="#000000" fill="#FFFFFF"/>
			<path d="M348.693,205.227c-40.32,0-65.813,34.347-65.813,80.853c0,45.867,25.493,76.267,69.227,76.267     c20.48,0,36.16-4.373,45.333-8.747l-4.373-19.093c-8.853,4.053-20.16,7.147-37.12,7.147c-24.533,0-46.933-13.76-47.253-53.76     h95.68c0.747-4.373,1.067-8.747,0.96-13.12C405.333,245.227,392.747,205.227,348.693,205.227z M379.84,268.8h-70.827     c1.92-19.733,12.587-44.373,37.12-44.373C371.627,224.427,380.16,247.573,379.84,268.8z" data-original="#000000" class="active-path" data-old_color="#000000" fill="#FFFFFF"/>
		</g>
	</g>
</g></g> </svg>
