<?xml version="1.0"?>
<svg xmlns="http://www.w3.org/2000/svg" id="Capa_1" enable-background="new 0 0 512 512" height="100px" viewBox="0 0 512 512" width="100px" class=""><g><g><g><g><path d="m493.341 100.068c4.14 0 7.497-3.356 7.497-7.497v-64.255c-.001-15.614-12.703-28.316-28.317-28.316h-433.042c-15.614 0-28.316 12.702-28.316 28.316v455.368c0 15.613 12.703 28.316 28.316 28.316h433.042c15.614 0 28.316-12.703 28.316-28.316v-356.022c0-4.141-3.357-7.497-7.497-7.497s-7.497 3.356-7.497 7.497v356.022c0 7.346-5.976 13.323-13.323 13.323h-433.041c-7.346 0-13.323-5.976-13.323-13.323v-455.368c0-7.347 5.976-13.323 13.323-13.323h433.042c7.346 0 13.323 5.976 13.323 13.323v64.255c0 4.141 3.356 7.497 7.497 7.497z" data-original="#000000" class="active-path" data-old_color="#000000" fill="#FFFFFF"/><path d="m82.928 45.492c-15.614 0-28.316 12.702-28.316 28.316v364.385c0 15.613 12.702 28.316 28.316 28.316h346.144c15.614 0 28.316-12.702 28.316-28.316v-364.385c0-15.613-12.702-28.316-28.316-28.316zm359.467 28.316v364.385c0 7.346-5.976 13.322-13.323 13.322h-346.144c-7.346 0-13.323-5.976-13.323-13.322v-364.385c0-7.346 5.976-13.322 13.323-13.322h346.144c7.347-.001 13.323 5.975 13.323 13.322z" data-original="#000000" class="active-path" data-old_color="#000000" fill="#FFFFFF"/><path d="m214.777 160.147c-.093-.248-.19-.494-.283-.719-4.633-11.261-15.493-18.538-27.7-18.538-12.19.013-23.049 7.311-27.666 18.601-.075.184-.148.369-.228.578l-35.25 92.554c-1.474 3.868.468 8.199 4.337 9.674 3.87 1.474 8.2-.469 9.674-4.338l35.242-92.53.106-.269c2.302-5.628 7.719-9.27 13.816-9.276 6.074 0 11.492 3.63 13.811 9.269l66.512 176.233c2.118 5.613-.725 11.903-6.339 14.022-1.239.468-2.531.705-3.839.705-4.5.001-8.592-2.83-10.183-7.045l-12.05-31.93c-1.102-2.918-3.895-4.849-7.014-4.849h-82.298c-3.111 0-5.899 1.921-7.006 4.829l-12.181 31.982c-2.136 5.606-8.435 8.427-14.042 6.295-5.607-2.136-8.431-8.435-6.296-14.041l19.249-50.54c1.474-3.869-.468-8.201-4.337-9.675-3.87-1.475-8.2.468-9.674 4.337l-19.249 50.541c-5.077 13.332 1.638 28.311 14.972 33.389 13.335 5.078 28.312-1.64 33.389-14.971l10.342-27.154h71.948l10.22 27.08c3.779 10.016 13.507 16.746 24.208 16.745h.003c3.122 0 6.195-.562 9.133-1.671 13.348-5.038 20.109-19.996 15.073-33.344z" data-original="#000000" class="active-path" data-old_color="#000000" fill="#FFFFFF"/><path d="m159.424 290.525h54.428c2.461 0 4.766-1.208 6.166-3.233s1.717-4.607.848-6.911l-27.089-71.781c-1.1-2.914-3.887-4.844-7.003-4.849-.004 0-.007 0-.011 0-3.11 0-5.898 1.921-7.006 4.829l-27.339 71.781c-.878 2.304-.566 4.893.833 6.922 1.4 2.03 3.707 3.242 6.173 3.242zm27.306-58.131 16.28 43.137h-32.709z" data-original="#000000" class="active-path" data-old_color="#000000" fill="#FFFFFF"/><g><path d="m403.799 314.608c-6.267-2.253-13.212-1.827-19.053 1.168-10.469 5.369-22.144 6.94-30.472 4.098-5.179-1.767-8.994-5.191-11.339-10.177-.219-.466-.422-.95-.61-1.455l55.313.106h.032c6.381 0 12.384-2.482 16.902-6.99 7.819-7.801 7.517-19.296 6.715-29.515-.922-11.74-5.198-22.797-12.075-32.346-12.373-17.182-32.359-27.439-53.463-27.439-18.336 0-35.522 8.186-48.389 23.05-16.107 18.605-23.926 45.27-20.406 69.591 2.601 17.971 11.529 35.239 24.495 47.377 13.483 12.623 33.34 19.057 52.843 19.056 17.348-.001 34.417-5.094 46.451-15.45 8.278-7.123 11.031-18.427 6.849-28.128-2.625-6.095-7.524-10.693-13.793-12.946zm-2.834 29.709c-19.581 16.848-59.584 15.242-79.267-3.187-10.526-9.854-17.781-23.915-19.902-38.579-2.87-19.832 3.764-42.453 16.903-57.63 7.057-8.152 19.214-17.869 37.054-17.869 16.294 0 31.732 7.928 41.295 21.208 2.483 3.448 4.592 7.18 6.181 11.124 2.191 5.439 2.867 10.284 3.344 16.086.387 4.703 1.109 11.588-2.588 15.275-1.687 1.683-3.929 2.61-6.33 2.61 0 0-63.16-.122-63.181-.122-2.623 0-5.086 1.158-6.76 3.179-1.678 2.026-2.356 4.672-1.859 7.255.841 4.381 1.573 8.286 3.513 12.411 4.083 8.683 11.022 14.903 20.067 17.988 12.224 4.171 27.981 2.319 42.153-4.947 2.162-1.109 4.765-1.255 7.141-.4 2.321.834 4.131 2.528 5.097 4.77 1.548 3.593.372 8.046-2.861 10.828z" data-original="#000000" class="active-path" data-old_color="#000000" fill="#FFFFFF"/><path d="m332.331 280.25 46.861.119h.019c2.394 0 4.645-1.144 6.056-3.079 1.415-1.94 1.816-4.44 1.076-6.726-5.039-15.575-17.047-25.639-30.592-25.639-13.468 0-25.45 10.006-30.526 25.493-.747 2.28-.358 4.781 1.048 6.726 1.406 1.946 3.658 3.1 6.058 3.106zm23.421-20.331c3.977 0 7.786 1.98 10.876 5.424l-21.678-.054c3.079-3.411 6.861-5.37 10.802-5.37z" data-original="#000000" class="active-path" data-old_color="#000000" fill="#FFFFFF"/></g></g></g></g></g> </svg>
